<?xml version="1.0" encoding="UTF-8" standalone="no"?>
<svg
   xmlns:dc="http://purl.org/dc/elements/1.1/"
   xmlns:cc="http://creativecommons.org/ns#"
   xmlns:rdf="http://www.w3.org/1999/02/22-rdf-syntax-ns#"
   xmlns:svg="http://www.w3.org/2000/svg"
   xmlns="http://www.w3.org/2000/svg"
   xmlns:xlink="http://www.w3.org/1999/xlink"
   xml:space="preserve"
   viewBox="0 0 192 192"
   height="192"
   width="192"
   y="0px"
   x="0px"
   id="Layer_1"
   version="1.1"><metadata
     id="metadata9"><rdf:RDF><cc:Work
         rdf:about=""><dc:format>image/svg+xml</dc:format><dc:type
           rdf:resource="http://purl.org/dc/dcmitype/StillImage" /><dc:title></dc:title></cc:Work></rdf:RDF></metadata><defs
     id="defs7"><linearGradient
       id="linearGradient5036"><stop
         id="stop5032"
         offset="0"
         style="stop-color:#ffffff;stop-opacity:0.1" /><stop
         id="stop5034"
         offset="1"
         style="stop-color:#ffffff;stop-opacity:0" /></linearGradient><linearGradient
       id="linearGradient4611"><stop
         style="stop-color:#1a237e;stop-opacity:1"
         offset="0"
         id="stop4609" /><stop
         style="stop-color:#000000;stop-opacity:0"
         offset="1"
         id="stop4607" /></linearGradient><linearGradient
       id="linearGradient3867"><stop
         id="stop3869"
         offset="0"
         style="stop-color:#ffffff;stop-opacity:1;" /><stop
         id="stop3871"
         offset="1"
         style="stop-color:#cbcbcb;stop-opacity:1" /></linearGradient><linearGradient
       id="linearGradient3860"><stop
         id="stop3862"
         offset="0"
         style="stop-color:#ffffff;stop-opacity:1;" /><stop
         id="stop3864"
         offset="1"
         style="stop-color:#999999;stop-opacity:1" /></linearGradient><linearGradient
       id="linearGradient3767"><stop
         id="stop3769"
         offset="0"
         style="stop-color:#ffffff;stop-opacity:1;" /><stop
         id="stop3771"
         offset="1"
         style="stop-color:#c4c4c4;stop-opacity:1" /></linearGradient><linearGradient
       gradientTransform="translate(-297,-3.5)"
       gradientUnits="userSpaceOnUse"
       y2="134.01724"
       x2="132.93608"
       y1="69.670525"
       x1="82.731499"
       id="linearGradient3773"
       xlink:href="#linearGradient3767" /><linearGradient
       gradientUnits="userSpaceOnUse"
       y2="134.01724"
       x2="132.93608"
       y1="69.670525"
       x1="82.731499"
       id="linearGradient3773-3"
       xlink:href="#linearGradient3767-5" /><linearGradient
       id="linearGradient3767-5"><stop
         id="stop3769-3"
         offset="0"
         style="stop-color:#ffffff;stop-opacity:1;" /><stop
         id="stop3771-5"
         offset="1"
         style="stop-color:#c4c4c4;stop-opacity:1" /></linearGradient><linearGradient
       gradientUnits="userSpaceOnUse"
       y2="148.42563"
       x2="85.736694"
       y1="85.316345"
       x1="71.771339"
       id="linearGradient3866"
       xlink:href="#linearGradient3860" /><linearGradient
       gradientUnits="userSpaceOnUse"
       y2="144.5"
       x2="91.5"
       y1="92.5"
       x1="75"
       id="linearGradient3873"
       xlink:href="#linearGradient3867" /><linearGradient
       gradientUnits="userSpaceOnUse"
       y2="144.5"
       x2="91.5"
       y1="92.5"
       x1="75"
       id="linearGradient3873-9"
       xlink:href="#linearGradient3867-5" /><linearGradient
       id="linearGradient3867-5"><stop
         id="stop3869-4"
         offset="0"
         style="stop-color:#ffffff;stop-opacity:1;" /><stop
         id="stop3871-3"
         offset="1"
         style="stop-color:#cbcbcb;stop-opacity:1" /></linearGradient><linearGradient
       gradientUnits="userSpaceOnUse"
       y2="104"
       x2="192"
       y1="104"
       x1="140"
       id="linearGradient4613"
       xlink:href="#linearGradient4611" /><filter
       id="filter3954-1"><feGaussianBlur
         id="feGaussianBlur3956-5"
         stdDeviation="1.52" /></filter><radialGradient
       gradientTransform="matrix(-2.3997672e-8,1.6842105,-1.6842105,-2.3997673e-8,171.78948,-43.789472)"
       gradientUnits="userSpaceOnUse"
       r="76"
       fy="64"
       fx="64"
       cy="64"
       cx="64"
       id="radialGradient5038"
       xlink:href="#linearGradient5036" /><filter
       height="1.096"
       y="-0.048"
       width="1.096"
       x="-0.048"
       id="filter5044"
       style="color-interpolation-filters:sRGB"><feGaussianBlur
         id="feGaussianBlur5046"
         stdDeviation="2.4" /></filter><filter
       height="1.0913083"
       y="-0.045654146"
       width="1.1012"
       x="-0.050599987"
       id="filter5052"
       style="color-interpolation-filters:sRGB"><feGaussianBlur
         id="feGaussianBlur5054"
         stdDeviation="2.5300014" /></filter></defs><path
     id="rect3784-6-0"
     d="m 68.21876,21.343805 c -8.31,0 -15,6.69 -15,15 V 126.3438 c 0,8.31 6.69,15 15,15 h 73.15625 l -0.15625,0.0625 32,12.9375 -0.0937,-26 -0.0312,0.0312 c 0.0899,-0.66659 0.125,-1.33927 0.125,-2.03125 V 36.343755 c 0,-8.31 -6.69,-15 -15,-15 z"
     style="opacity:0.75;fill:#333333;fill-opacity:1;fill-rule:nonzero;stroke:none;filter:url(#filter5052)" /><path
     transform="matrix(1.0002634,0,0,0.7050238,100.89101,21.702353)"
     d="m -47.651278,44.984287 -31.991574,18.345344 0.108254,-36.878188 z"
     id="path3804-9"
     style="opacity:0.8;fill:#333333;fill-opacity:1;fill-rule:nonzero;stroke:none;filter:url(#filter3954-1)" /><rect
     ry="15"
     y="53.35125"
     x="21.22718"
     height="120"
     width="120"
     id="rect3784-3"
     style="opacity:0.75;fill:#333333;fill-opacity:1;fill-rule:nonzero;stroke:none;filter:url(#filter5044)" /><rect
     ry="15"
     y="20"
     x="52"
     height="120"
     width="120"
     id="rect3784-6"
     style="fill:#a59cca;fill-opacity:1;fill-rule:nonzero;stroke:none" /><path
     transform="matrix(-1.0002634,0,0,0.7050238,92.336171,108.3511)"
     d="m -47.651278,44.984287 -31.991574,18.345344 0.108254,-36.878188 z"
     id="path3804-6"
     style="fill:#7568ae;fill-opacity:1;fill-rule:nonzero;stroke:none" /><path
     id="path3804-6-7"
     d="M 141.22852,139.5625 140,140.06641 172,153 l -0.004,-1.00195 z"
     style="fill:#1a237e;fill-opacity:1;fill-rule:nonzero;stroke:none;stroke-width:0.83976752;opacity:0.2" /><rect
     ry="15"
     y="52"
     x="20"
     height="120"
     width="120"
     id="rect3784"
     style="fill:#7568ae;fill-opacity:1;fill-rule:nonzero;stroke:none" /><path
     id="path3033"
     d="M 80 78.375 C 69.50659 78.375 61 86.881589 61 97.375 C 61 104.50887 64.935339 110.72005 70.75 113.96875 L 67 145 L 93 145 L 89.25 113.96875 C 95.064661 110.72005 99 104.50887 99 97.375 C 99 86.881589 90.493411 78.375 80 78.375 z "
     style="fill:#ffffff;fill-opacity:1;stroke:none" /><path
     id="path4559"
     d="M 140,140.06609 172,153 V 92.769531 l -32,-32.003906 -4.38477,-4.384766 c 0,0 4.38477,3.884766 4.38477,10.619141 v 9.520624 z"
     style="fill:url(#linearGradient4613);stroke:none;stroke-width:1px;stroke-linecap:butt;stroke-linejoin:miter;stroke-opacity:1;fill-opacity:1;opacity:0.2" /><path
     id="rect3784-8"
     d="M 67,20 C 58.69,20 52,26.69 52,35 V 52 H 51.83789 L 20.10742,39 20,65 20.1582,64.93555 C 20.06559,65.612037 20,66.297275 20,67 v 90 c 0,8.31 6.69,15 15,15 h 90 c 8.31,0 15,-6.69 15,-15 V 140.06641 140 h 0.16211 L 140,140.06641 172,153 l -0.10742,-26 -0.043,0.0176 C 171.93804,126.35615 172,125.68639 172,125 V 35 c 0,-8.31 -6.69,-15 -15,-15 z"
     style="fill:url(#radialGradient5038);fill-opacity:1;fill-rule:nonzero;stroke:none" /><path
     id="rect3784-0"
     d="m 35,52 c -8.31,0 -15,6.69 -15,15 v 1 c 0,-8.31 6.69,-15 15,-15 h 90 c 8.31,0 15,6.69 15,15 v -1 c 0,-8.31 -6.69,-15 -15,-15 z"
     style="fill:#ffffff;fill-opacity:1;fill-rule:nonzero;stroke:none;opacity:0.2" /><path
     transform="matrix(1.0002634,0,0,0.7050238,99.663829,20.351103)"
     d="m -47.651278,44.984287 -31.991574,18.345344 0.108254,-36.878188 z"
     id="path3804"
     style="fill:#5a4e91;fill-opacity:1;fill-rule:nonzero;stroke:none" /><path
     id="path3804-1"
     d="M 20.10742,39 20,65 l 0.0039,-0.002 L 20.10742,40 50.77148,52.5625 52,52.066406 Z"
     style="fill:#ffffff;fill-opacity:1;fill-rule:nonzero;stroke:none;stroke-width:0.83976752;opacity:0.2" /><path
     id="rect3784-6-5"
     d="m 67,20 c -8.31,0 -15,6.69 -15,15 v 1 c 0,-8.31 6.69,-15 15,-15 h 90 c 8.31,0 15,6.69 15,15 v -1 c 0,-8.31 -6.69,-15 -15,-15 z"
     style="fill:#ffffff;fill-opacity:1;fill-rule:nonzero;stroke:none;opacity:0.2" /><path
     id="rect3784-68"
     d="m 20,156 v 1 c 0,8.31 6.69,15 15,15 h 90 c 8.31,0 15,-6.69 15,-15 v -1 c 0,8.31 -6.69,15 -15,15 H 35 c -8.31,0 -15,-6.69 -15,-15 z"
     style="opacity:0.2;fill:#1a237e;fill-opacity:1;fill-rule:nonzero;stroke:none" /></svg>